# xmcd
# 
# Track frame offsets:
#     150
#     10315
#     20162
#     31287
#     42802
#     50995
#     59027
#     64750
#     76705
#     86430
#     93985
#     99900
#     108757
#     121065
#     131165
#     144285
#     156165
#     165657
#     176310
#     185565
# 
# Disc length: 2636
# 
# Revision: 1
# Processed by: cddbd v1.5.2PL0 Copyright (c) Steve Scherf et al.
# Submitted via: fre:ac v1.0.31
# 
DISCID=010a4a14
DTITLE=Johnny Cash - His Sun Years, Sugartime, Disc 3
DYEAR=0
DGENRE=Country
TTITLE0=Straight A's In Love
TTITLE1=Ballad Of A Teenage Queen
TTITLE2=Oh, Lonesome Me
TTITLE3=Port Of Lonely Hearts
TTITLE4=Guess Things Happen That Way
TTITLE5=Sugartime
TTITLE6=My Treasure
TTITLE7=You're The Nearest Thing To Heaven
TTITLE8=The Story Of A Broken Heart
TTITLE9=Come In Stranger
TTITLE10=You Tell Me
TTITLE11=Katy Too
TTITLE12=Next In line
TTITLE13=The Ways Of A Woman In love
TTITLE14=Thanks A lot
TTITLE15=Home Of The Blues
TTITLE16=It's Just About Time
TTITLE17=I Just Thought You's Like To Know
TTITLE18=Down The Street To 301
TTITLE19=I Walk The Line
EXTD=
EXTT0=
EXTT1=
EXTT2=
EXTT3=
EXTT4=
EXTT5=
EXTT6=
EXTT7=
EXTT8=
EXTT9=
EXTT10=
EXTT11=
EXTT12=
EXTT13=
EXTT14=
EXTT15=
EXTT16=
EXTT17=
EXTT18=
EXTT19=
PLAYORDER=
